<?xml version="1.0" encoding="utf-8"?>
<!-- Generator: Adobe Illustrator 21.0.2, SVG Export Plug-In . SVG Version: 6.00 Build 0)  -->
<svg version="1.1" id="Слой_1" focusable="false"
	 xmlns="http://www.w3.org/2000/svg" xmlns:xlink="http://www.w3.org/1999/xlink" x="0px" y="0px" viewBox="0 0 586 586"
	 style="enable-background:new 0 0 586 586;" xml:space="preserve">
<style type="text/css">
	.st0{fill:#E5E5E5;}
</style>
<path class="st0" d="M513.9,250.2H72.1c-20.4,0-36.8,12.8-36.8,28.6v28.6c0,15.8,16.5,28.6,36.8,28.6h441.8
	c20.4,0,36.8-12.8,36.8-28.6v-28.6C550.7,262.9,534.2,250.2,513.9,250.2z"/>
<path class="st0" d="M335.8,513.9V72.1c0-20.4-12.8-36.8-28.6-36.8h-28.6c-15.8,0-28.6,16.5-28.6,36.8v441.8
	c0,20.4,12.8,36.8,28.6,36.8h28.6C323.1,550.7,335.8,534.2,335.8,513.9z"/>
</svg>
